<svg width="24" height="24" viewBox="0 0 24 24" fill="none" xmlns="http://www.w3.org/2000/svg">
  <path d="M18.5613 5C17.0124 5 15.6512 5.6909 14.7628 6.7773C13.0304 5.0506 10.9865 3.6988 8.7507 2.8126L8.5004 2.7117V7.9053C8.5004 9.3875 7.3007 10.5973 5.8185 10.5973C4.3363 10.5973 3.1265 9.3875 3.1265 7.9053V2.5L3 2.5202C1.1721 2.8227 0 4.5449 0 6.5382V7.9559C0 10.9203 2.3289 13.2492 5.2935 13.2492C7.1709 13.2492 8.8012 12.2171 9.6723 10.7093C10.0277 11.4706 10.4135 12.2119 10.8297 12.9228C10.2344 14.5846 8.962 17.8881 8.962 17.8881H11.9668C11.9668 17.8881 12.6476 15.9969 13.1582 14.5442C13.7999 14.8491 14.4821 15.0509 15.2047 15.1013C16.4076 15.1922 17.5701 14.8289 18.4906 14.1481C19.0758 15.9262 20.0675 17.8982 20.0675 17.8982H23.0723C23.0723 17.8982 21.2551 13.0844 20.509 10.7194C20.9227 9.9378 21.1447 9.0451 21.1447 8.1019C21.1548 6.4069 19.7409 5.0202 18.0558 5.0202L18.5613 5ZM18.1365 8.0918C18.1365 9.6632 17.0225 10.9405 15.5706 11.182C14.9249 11.2931 14.2792 11.1719 13.7344 10.8468C13.8656 10.5771 13.9867 10.2974 14.1078 10.0076C14.4128 9.2663 14.6954 8.5149 14.9451 7.7635C15.4456 6.8581 16.309 6.2225 17.2956 6.0207C17.4976 5.9803 17.6996 5.9601 17.9016 5.9601C18.0227 5.9601 18.1336 5.9702 18.2446 5.9803C18.1941 6.3234 18.1638 6.6766 18.1638 7.04C18.1638 7.4034 18.1537 7.7433 18.1437 8.0615L18.1365 8.0918Z" fill="#14A800"/>
</svg>