<svg preserveAspectRatio="none" width="100%" height="100%" overflow="visible" style="display: block;" viewBox="0 0 14 14" fill="none" xmlns="http://www.w3.org/2000/svg">
<g id="profile-2user">
<path id="Vector" d="M5.34337 6.34083C5.28503 6.335 5.21503 6.335 5.15087 6.34083C3.76253 6.29417 2.66003 5.15667 2.66003 3.75667C2.66003 2.3275 3.81503 1.16667 5.25003 1.16667C6.6792 1.16667 7.84003 2.3275 7.84003 3.75667C7.8342 5.15667 6.7317 6.29417 5.34337 6.34083Z" stroke="var(--stroke-0, #8E51FF)" stroke-width="0.875" stroke-linecap="round" stroke-linejoin="round"/>
<path id="Vector_2" d="M9.57237 2.33333C10.704 2.33333 11.614 3.24917 11.614 4.375C11.614 5.4775 10.739 6.37583 9.64821 6.41667C9.60154 6.41083 9.54904 6.41083 9.49654 6.41667" stroke="var(--stroke-0, #8E51FF)" stroke-width="0.875" stroke-linecap="round" stroke-linejoin="round"/>
<path id="Vector_3" d="M2.42679 8.49333C1.01513 9.43833 1.01513 10.9783 2.42679 11.9175C4.03096 12.9908 6.66179 12.9908 8.26596 11.9175C9.67763 10.9725 9.67763 9.4325 8.26596 8.49333C6.66763 7.42583 4.03679 7.42583 2.42679 8.49333Z" stroke="var(--stroke-0, #8E51FF)" stroke-width="0.875" stroke-linecap="round" stroke-linejoin="round"/>
<path id="Vector_4" d="M10.6982 11.6667C11.1182 11.5792 11.5149 11.41 11.8416 11.1592C12.7516 10.4767 12.7516 9.35083 11.8416 8.66833C11.5207 8.42333 11.1299 8.26 10.7157 8.16667" stroke="var(--stroke-0, #8E51FF)" stroke-width="0.875" stroke-linecap="round" stroke-linejoin="round"/>
<g id="Vector_5" opacity="0">
</g>
</g>
</svg>
