<svg preserveAspectRatio="none" width="100%" height="100%" overflow="visible" style="display: block;" viewBox="0 0 16 16" fill="none" xmlns="http://www.w3.org/2000/svg">
<path id="Star background" d="M7.58451 0.998967C7.73822 0.629385 8.26178 0.629386 8.41549 0.998968L10.275 5.4697C10.3398 5.6255 10.4863 5.73196 10.6545 5.74545L15.481 6.13239C15.88 6.16437 16.0418 6.6623 15.7378 6.9227L12.0605 10.0727C11.9324 10.1825 11.8764 10.3547 11.9156 10.5189L13.039 15.2287C13.1319 15.6181 12.7083 15.9258 12.3667 15.7172L8.23456 13.1933C8.09056 13.1053 7.90944 13.1053 7.76544 13.1933L3.63325 15.7172C3.29166 15.9258 2.8681 15.6181 2.96097 15.2287L4.08445 10.5189C4.1236 10.3547 4.06763 10.1825 3.93948 10.0727L0.262171 6.9227C-0.0418205 6.6623 0.119967 6.16437 0.518961 6.13239L5.34549 5.74545C5.5137 5.73196 5.66022 5.6255 5.72502 5.4697L7.58451 0.998967Z" fill="var(--fill-0, #E5E5E5)"/>
</svg>
