<svg preserveAspectRatio="none" width="100%" height="100%" overflow="visible" style="display: block;" viewBox="0 0 14 18" fill="none" xmlns="http://www.w3.org/2000/svg">
<g id="Star" clip-path="url(#clip0_2365_23049)">
<path id="Star_2" d="M8.58451 1.44897C8.73822 1.07939 9.26178 1.07939 9.41549 1.44897L11.275 5.9197C11.3398 6.0755 11.4863 6.18196 11.6545 6.19545L16.481 6.58239C16.88 6.61437 17.0418 7.1123 16.7378 7.3727L13.0605 10.5227C12.9324 10.6325 12.8764 10.8047 12.9156 10.9689L14.039 15.6787C14.1319 16.0681 13.7083 16.3758 13.3667 16.1672L9.23456 13.6433C9.09056 13.5553 8.90944 13.5553 8.76544 13.6433L4.63325 16.1672C4.29166 16.3758 3.8681 16.0681 3.96097 15.6787L5.08445 10.9689C5.1236 10.8047 5.06763 10.6325 4.93948 10.5227L1.26217 7.3727C0.95818 7.1123 1.11997 6.61437 1.51896 6.58239L6.34549 6.19545C6.5137 6.18196 6.66022 6.0755 6.72502 5.9197L8.58451 1.44897Z" fill="var(--fill-0, #F0B100)"/>
</g>
<defs>
<clipPath id="clip0_2365_23049">
<rect width="13.5" height="18" fill="white"/>
</clipPath>
</defs>
</svg>
