<svg width="35" height="24" viewBox="0 0 35 24" fill="none" xmlns="http://www.w3.org/2000/svg">
<rect width="35" height="24" rx="3" fill="white"/>
<rect x="0.5" y="0.5" width="34" height="23" rx="2.5" stroke="#D9D9D9"/>
<path d="M17.8286 9.57143C17.8286 8.91429 18.3429 8.65714 19.2 8.65714C20.4 8.65714 22 9.05714 23.1429 9.6V7.11429C21.8857 6.62857 20.6571 6.4 19.2 6.4C16.3429 6.4 14.4 7.88571 14.4 10.2857C14.4 13.6286 19.4857 13.0857 19.4857 14.6857C19.4857 15.4286 18.8571 15.7143 17.9429 15.7143C16.6857 15.7143 14.9143 15.2286 13.6571 14.5714V17.0857C15.0857 17.6571 16.5143 17.9429 17.9429 17.9429C20.8857 17.9429 23 16.5143 23 14.0571C22.9714 10.4571 17.8286 11.0857 17.8286 9.57143Z" fill="#6772E5"/>
</svg>