<svg width="23" height="16" viewBox="0 0 23 16" fill="none" xmlns="http://www.w3.org/2000/svg">
<rect width="23" height="16" rx="2.5" fill="white"/>
<rect x="0.5" y="0.5" width="22" height="15" rx="2" stroke="#D9D9D9"/>
<path d="M10.3516 10.8516H8.70312L9.64844 5.14844H11.2969L10.3516 10.8516Z" fill="#00579F"/>
<path d="M16.8125 5.28906C16.4609 5.14844 15.9062 5 15.2266 5C13.5938 5 12.4531 5.85156 12.4453 7.0625C12.4375 7.96094 13.2734 8.46875 13.9062 8.77344C14.5547 9.08594 14.7734 9.28906 14.7734 9.57031C14.7656 10 14.2344 10.1953 13.7422 10.1953C13.0547 10.1953 12.6875 10.1016 12.125 9.875L11.9141 9.77344L11.6875 11.1328C12.0859 11.3125 12.8281 11.4688 13.5938 11.4766C15.3203 11.4766 16.4375 10.6328 16.4531 9.33594C16.4609 8.625 16.0078 8.07812 15.0391 7.625C14.4531 7.33594 14.0938 7.14062 14.0938 6.85156C14.1016 6.58594 14.375 6.32031 14.9766 6.32031C15.4688 6.30469 15.8281 6.41406 16.1094 6.53906L16.2422 6.60156L16.4688 5.28906H16.8125Z" fill="#00579F"/>
<path d="M18.2969 9.25C18.3906 9 18.7734 7.96875 18.7734 7.96875C18.7656 7.98438 18.8672 7.71094 18.9297 7.54688L19.0078 7.92188C19.0078 7.92188 19.2891 9.17969 19.3438 9.45312H18.2031L18.2969 9.25ZM20.1797 5.14844H18.9141C18.5312 5.14844 18.2422 5.25781 18.0703 5.64844L15.6953 10.8516H17.4219C17.4219 10.8516 17.6875 10.1328 17.7422 9.96875H19.8828C19.9297 10.1797 20.0547 10.8516 20.0547 10.8516H21.5625L20.1797 5.14844Z" fill="#00579F"/>
<path d="M6.74219 5.14844L5.02344 8.92188L4.83594 7.99219C4.52344 7.03125 3.57812 6 2.53125 5.47656L4.08594 10.8438H5.82031L8.47656 5.14844H6.74219Z" fill="#00579F"/>
<path d="M3.40625 5.14844H1.01562L1 5.25781C2.85156 5.71094 4.125 6.75 4.52344 7.99219L4.10938 5.66406C4.03125 5.28906 3.75 5.16406 3.40625 5.14844Z" fill="#FAA61A"/>
</svg>