<svg width="180" height="180" viewBox="0 0 180 180" fill="none" xmlns="http://www.w3.org/2000/svg">
<path d="M122.61 40C126.101 40 129.282 42.0067 130.785 45.1581C132.288 48.3095 131.846 52.0446 129.649 54.7581L75.2951 121.884H123.538C128.541 121.884 132.596 125.939 132.596 130.942C132.596 135.945 128.541 140 123.538 140H56.3052C52.8136 140 49.6329 137.993 48.1296 134.842C46.6264 131.691 47.0682 127.955 49.2654 125.242L103.62 58.1159H56.3052C51.3026 58.1159 47.2472 54.0606 47.2472 49.058C47.2472 44.0554 51.3026 40 56.3052 40H122.61Z" fill="#8A5DF1" fill-opacity="0.7"/>
<path d="M122.609 40C126.1 40 129.281 42.0067 130.784 45.1581C132.288 48.3095 131.846 52.0446 129.649 54.7581L63.3442 136.642C60.1961 140.53 54.4921 141.13 50.6043 137.982C46.7165 134.834 46.1167 129.13 49.2647 125.242L103.619 58.1159H56.3044C51.3019 58.1159 47.2465 54.0606 47.2465 49.058C47.2465 44.0554 51.3019 40 56.3044 40H122.609Z" fill="#8A5DF1"/>
<circle cx="123.697" cy="130.942" r="9.05797" fill="#8A5DF1"/>
</svg>
