<svg width="390" height="92" viewBox="0 0 390 92" fill="none" xmlns="http://www.w3.org/2000/svg">
<g clip-path="url(#clip0_78_5)">
<path d="M363.71 91.9963C357.127 92.0754 351.456 90.8884 346.698 88.4352C341.939 85.9029 338.251 82.3814 335.634 77.8707C333.096 73.2809 331.827 67.8997 331.827 61.7272C331.827 57.2165 332.581 53.141 334.087 49.5008C335.594 45.7815 337.696 42.5765 340.393 39.8859C343.168 37.1953 346.38 35.1378 350.029 33.7134C353.677 32.2099 357.682 31.4581 362.044 31.4581C367.754 31.4581 372.672 32.6847 376.796 35.1378C380.999 37.5119 384.251 40.6377 386.551 44.5153C388.851 48.3929 390.001 52.4684 390.001 56.7417C390.001 58.8783 389.446 60.5402 388.335 61.7272C387.304 62.9142 385.877 63.7847 384.052 64.3386C382.228 64.8926 380.246 65.407 378.104 65.8818C375.566 66.3566 372.83 66.7127 369.896 66.9501C367.041 67.1875 363.67 67.3853 359.784 67.5436C355.898 67.6227 351.179 67.7019 345.627 67.781L345.984 56.9791C349.632 56.9791 353.36 56.9791 357.167 56.9791C360.973 56.9 364.582 56.6625 367.992 56.2669C371.482 55.8712 374.496 55.1985 377.034 54.2489L375.011 55.7921C375.17 52.3101 373.98 49.5008 371.442 47.3642C368.984 45.1484 365.93 44.0405 362.282 44.0405C359.189 44.0405 356.572 44.634 354.43 45.8211C352.368 47.0081 350.782 48.7886 349.672 51.1627C348.561 53.4576 348.006 56.346 348.006 59.8279V61.4898C348.006 65.9213 348.68 69.4824 350.029 72.173C351.377 74.7844 353.241 76.6837 355.62 77.8707C358.079 78.9786 360.934 79.5325 364.185 79.5325C366.247 79.5325 368.27 79.2556 370.253 78.7016C372.235 78.1477 374.297 77.2772 376.439 76.0902C377.866 75.2197 379.175 74.8636 380.365 75.0218C381.634 75.1801 382.704 75.6549 383.577 76.4463C384.528 77.2376 385.163 78.2268 385.48 79.4138C385.797 80.6009 385.678 81.867 385.123 83.2123C384.568 84.4785 383.458 85.7051 381.792 86.8921C379.492 88.3956 376.716 89.6222 373.465 90.5719C370.292 91.5215 367.041 91.9963 363.71 91.9963Z" fill="#09090B"/>
<path d="M328.265 84.3583C328.265 85.3931 328.069 86.3881 327.675 87.3433C327.36 88.2189 326.808 89.015 326.02 89.7314C325.233 90.4478 324.287 91.005 323.185 91.403C322.161 91.801 320.9 92 319.404 92C316.883 92 314.677 91.6816 312.787 91.0448C310.975 90.4876 309.439 89.6916 308.179 88.6568C306.997 87.5423 306.052 86.2289 305.343 84.7165C304.634 83.2041 304.122 81.4926 303.807 79.5822C303.492 77.5922 303.334 75.5225 303.334 73.3733C303.334 68.1992 303.334 63.4232 303.334 59.0451C303.334 54.5874 303.334 50.289 303.334 46.1497C303.334 42.0104 303.334 37.7518 303.334 33.3737C303.334 28.9956 303.334 24.2196 303.334 19.0455C303.334 16.2594 304.004 14.0704 305.343 12.4784C306.682 10.8863 308.691 10.0903 311.369 10.0903C314.047 10.0903 316.056 10.8863 317.395 12.4784C318.813 14.0704 319.522 16.2594 319.522 19.0455C319.522 24.2196 319.522 28.9956 319.522 33.3737C319.522 37.7518 319.522 42.0502 319.522 46.2691C319.522 50.4084 319.522 54.667 319.522 59.0451C319.522 63.4232 319.522 68.1992 319.522 73.3733C319.522 74.2489 319.522 75.0847 319.522 75.8808C319.6 76.5972 319.837 77.1544 320.231 77.5524C320.703 77.9504 321.412 78.1494 322.358 78.1494C323.933 78.1494 325.154 78.5076 326.02 79.224C326.887 79.9404 327.478 80.816 327.793 81.8509C328.108 82.8061 328.265 83.6419 328.265 84.3583Z" fill="#09090B"/>
<path d="M269.122 92C264.314 92 260.096 90.9682 256.47 88.9046C252.923 86.841 250.558 83.8646 249.375 79.9755L250.676 76.4038L250.676 83.428C250.676 86.206 250.005 88.349 248.665 89.857C247.325 91.2857 245.354 92 242.753 92C240.073 92 238.023 91.246 236.604 89.7379C235.185 88.2299 234.476 86.0869 234.476 83.309L234.476 18.5432C234.476 16.2415 235.185 14.2572 236.604 12.5905C238.023 10.9237 240.073 10.0903 242.753 10.0903C245.433 10.0903 247.444 10.9237 248.784 12.5905C250.203 14.2572 250.912 16.2415 250.912 18.5432V43.7828H249.493C250.755 40.1318 253.159 37.1554 256.706 34.8537C260.254 32.4726 264.393 31.2821 269.122 31.2821C274.168 31.2821 278.543 32.5123 282.248 34.9728C285.953 37.4332 288.791 40.9255 290.762 45.4496C292.811 49.8943 293.836 55.2915 293.836 61.641C293.836 67.8319 292.811 73.229 290.762 77.8325C288.712 82.3566 285.835 85.8488 282.13 88.3093C278.425 90.7698 274.089 92 269.122 92ZM264.156 79.3802C266.758 79.3802 269.083 78.7453 271.133 77.4753C273.182 76.126 274.759 74.1418 275.863 71.5226C277.045 68.9034 277.636 65.6095 277.636 61.641C277.636 55.6089 276.375 51.1642 273.852 48.3069C271.33 45.3702 268.098 43.9019 264.156 43.9019C261.555 43.9019 259.229 44.5368 257.179 45.8068C255.13 47.0767 253.514 49.0212 252.331 51.6404C251.149 54.2597 250.558 57.5932 250.558 61.641C250.558 62.276 250.558 62.9506 250.558 63.665C250.636 64.2999 250.715 64.9349 250.794 65.5698C250.873 66.2048 250.952 66.8001 251.031 67.3557C251.188 67.8319 251.306 68.3478 251.385 68.9034C252.016 71.2051 252.923 73.1497 254.105 74.7371C255.366 76.2451 256.825 77.396 258.48 78.1897C260.214 78.9834 262.106 79.3802 264.156 79.3802Z" fill="#09090B"/>
<path d="M214.531 92C212.036 92 210.086 91.2024 208.682 89.607C207.278 87.932 206.576 85.6188 206.576 82.6675V40.9103C206.576 37.8792 207.278 35.566 208.682 33.9707C210.086 32.2956 212.036 31.4581 214.531 31.4581C217.105 31.4581 219.094 32.2956 220.498 33.9707C221.902 35.566 222.604 37.8792 222.604 40.9103V82.6675C222.604 85.6188 221.902 87.932 220.498 89.607C219.172 91.2024 217.183 92 214.531 92Z" fill="#09090B"/>
<ellipse cx="214.589" cy="9.79355" rx="9.79452" ry="9.79355" fill="#09090B"/>
<path d="M147.608 92C144.905 92 142.759 91.2452 141.17 89.7356C139.659 88.2261 138.904 86.0809 138.904 83.3001V40.158C138.904 37.3772 139.659 35.2717 141.17 33.8416C142.68 32.4115 144.746 31.6964 147.369 31.6964C150.072 31.6964 152.059 32.4115 153.33 33.8416C154.682 35.2717 155.357 37.3772 155.357 40.158V47.4278L154.046 43.8525C155.874 39.8005 158.616 36.7416 162.272 34.6758C165.928 32.5307 170.061 31.4581 174.671 31.4581C179.361 31.4581 183.216 32.332 186.236 34.08C189.256 35.8279 191.522 38.5292 193.032 42.184C194.542 45.7593 195.297 50.288 195.297 55.7702V83.3001C195.297 86.0809 194.542 88.2261 193.032 89.7356C191.601 91.2452 189.535 92 186.832 92C184.13 92 182.023 91.2452 180.513 89.7356C179.083 88.2261 178.367 86.0809 178.367 83.3001V56.6044C178.367 52.3935 177.572 49.3346 175.983 47.4278C174.473 45.521 172.088 44.5675 168.829 44.5675C164.855 44.5675 161.676 45.8388 159.292 48.3812C156.987 50.8442 155.834 54.1812 155.834 58.3921V83.3001C155.834 86.0809 155.158 88.2261 153.807 89.7356C152.456 91.2452 150.389 92 147.608 92Z" fill="#8A5DF1"/>
<path d="M103.71 91.9963C97.1269 92.0754 91.4562 90.8884 86.6977 88.4352C81.9391 85.9029 78.2512 82.3814 75.634 77.8707C73.0961 73.2809 71.8271 67.8997 71.8271 61.7272C71.8271 57.2165 72.5806 53.141 74.0875 49.5008C75.5944 45.7815 77.696 42.5765 80.3926 39.8859C83.1684 37.1953 86.3804 35.1378 90.0287 33.7134C93.6769 32.2099 97.682 31.4581 102.044 31.4581C107.754 31.4581 112.672 32.6847 116.796 35.1378C120.999 37.5119 124.251 40.6377 126.551 44.5153C128.851 48.3929 130.001 52.4684 130.001 56.7417C130.001 58.8783 129.445 60.5402 128.335 61.7272C127.304 62.9142 125.877 63.7847 124.052 64.3386C122.228 64.8926 120.246 65.407 118.104 65.8818C115.566 66.3566 112.83 66.7127 109.896 66.9501C107.041 67.1875 103.67 67.3853 99.7837 67.5436C95.8976 67.6227 91.1787 67.7019 85.627 67.781L85.9839 56.9791C89.6321 56.9791 93.3597 56.9791 97.1665 56.9791C100.973 56.9 104.582 56.6625 107.992 56.2669C111.482 55.8712 114.496 55.1985 117.034 54.2489L115.011 55.7921C115.17 52.3101 113.98 49.5008 111.442 47.3642C108.984 45.1484 105.93 44.0405 102.282 44.0405C99.1889 44.0405 96.5717 44.634 94.4304 45.8211C92.3683 47.0081 90.7821 48.7886 89.6718 51.1627C88.5615 53.4576 88.0063 56.346 88.0063 59.8279V61.4898C88.0063 65.9213 88.6804 69.4824 90.0287 72.173C91.3769 74.7844 93.2407 76.6837 95.62 77.8707C98.0786 78.9786 100.934 79.5325 104.185 79.5325C106.247 79.5325 108.27 79.2556 110.253 78.7016C112.235 78.1477 114.297 77.2772 116.439 76.0902C117.866 75.2197 119.175 74.8636 120.365 75.0218C121.634 75.1801 122.704 75.6549 123.577 76.4463C124.528 77.2376 125.163 78.2268 125.48 79.4138C125.797 80.6009 125.678 81.867 125.123 83.2123C124.568 84.4785 123.458 85.7051 121.792 86.8921C119.492 88.3956 116.716 89.6222 113.465 90.5719C110.292 91.5215 107.041 91.9963 103.71 91.9963Z" fill="#8A5DF1"/>
<path d="M61.7362 10.0903C64.5964 10.0903 67.202 11.7341 68.4335 14.3153C69.6648 16.8966 69.3029 19.956 67.503 22.1787L22.9773 77.1613H62.4968C66.5948 77.1613 69.9169 80.4831 69.9169 84.5807C69.9169 88.6783 66.5948 92 62.4968 92H7.42118C4.56099 92 1.95539 90.3563 0.723966 87.775C-0.507423 85.1937 -0.145513 82.1343 1.65438 79.9117L46.1801 24.929H7.42118C3.32318 24.929 0.00108674 21.6073 0.00108674 17.5097C0.00108674 13.4121 3.32318 10.0903 7.42118 10.0903H61.7362Z" fill="#8A5DF1" fill-opacity="0.7"/>
<path d="M61.7355 10.0903C64.5957 10.0903 67.2013 11.7341 68.4327 14.3153C69.6641 16.8966 69.3022 19.956 67.5023 22.1787L13.1872 89.2496C10.6084 92.4341 5.93579 92.9254 2.75096 90.3469C-0.433837 87.7683 -0.925195 83.0962 1.6536 79.9117L46.1794 24.929H7.4204C3.3224 24.929 0.000311919 21.6073 0.000311919 17.5097C0.000311919 13.4121 3.3224 10.0903 7.4204 10.0903H61.7355Z" fill="#8A5DF1"/>
<ellipse cx="62.6261" cy="84.5807" rx="7.42009" ry="7.41935" fill="#8A5DF1"/>
</g>
<defs>
<clipPath id="clip0_78_5">
<rect width="390" height="92" fill="white"/>
</clipPath>
</defs>
</svg>
