<svg preserveAspectRatio="none" width="100%" height="100%" overflow="visible" style="display: block;" viewBox="0 0 20 20" fill="none" xmlns="http://www.w3.org/2000/svg">
<g id="Group 1000008580">
<path id="Vector" d="M9.99867 3.70734C9.99973 3.34745 9.92881 2.99098 9.79009 2.6589C9.65137 2.32681 9.44765 2.02582 9.1909 1.77363C8.93415 1.52143 8.62956 1.32313 8.29505 1.19037C7.96054 1.05761 7.60286 0.993086 7.24305 1.00059C6.88323 1.00809 6.52855 1.08746 6.19986 1.23404C5.87117 1.38062 5.57511 1.59145 5.3291 1.85412C5.08308 2.1168 4.89207 2.42602 4.76731 2.76359C4.64255 3.10116 4.58655 3.46028 4.6026 3.81981C4.0737 3.9558 3.58269 4.21037 3.16674 4.56422C2.75079 4.91808 2.42082 5.36194 2.20181 5.86221C1.9828 6.36247 1.88051 6.90601 1.90267 7.45166C1.92483 7.99731 2.07087 8.53077 2.32972 9.01163C1.87459 9.38138 1.51669 9.85674 1.28717 10.3963C1.05764 10.936 0.963436 11.5235 1.01275 12.1078C1.06206 12.6921 1.2534 13.2556 1.57012 13.7491C1.88684 14.2426 2.31934 14.6512 2.83001 14.9395C2.76695 15.4274 2.80458 15.923 2.94058 16.3958C3.07658 16.8686 3.30807 17.3085 3.62073 17.6883C3.9334 18.0681 4.32062 18.3798 4.75846 18.6041C5.19631 18.8284 5.6755 18.9606 6.16642 18.9924C6.65735 19.0243 7.1496 18.9552 7.61276 18.7893C8.07593 18.6235 8.50018 18.3645 8.85931 18.0282C9.21845 17.692 9.50484 17.2857 9.70081 16.8345C9.89677 16.3833 9.99814 15.8966 9.99867 15.4047V3.70734Z" stroke="var(--stroke-0, #8E51FF)" stroke-width="1.5" stroke-linecap="round" stroke-linejoin="round"/>
<path id="Vector_2" d="M9.99856 3.70724C9.9975 3.34735 10.0684 2.99088 10.2071 2.65879C10.3459 2.32671 10.5496 2.02572 10.8063 1.77353C11.0631 1.52133 11.3677 1.32303 11.7022 1.19027C12.0367 1.05751 12.3944 0.992985 12.7542 1.00049C13.114 1.00799 13.4687 1.08736 13.7974 1.23394C14.1261 1.38052 14.4221 1.59135 14.6681 1.85402C14.9142 2.1167 15.1052 2.42591 15.2299 2.76349C15.3547 3.10106 15.4107 3.46018 15.3946 3.81971C15.9235 3.9557 16.4145 4.21027 16.8305 4.56412C17.2464 4.91798 17.5764 5.36184 17.7954 5.86211C18.0144 6.36237 18.1167 6.90591 18.0946 7.45156C18.0724 7.99721 17.9264 8.53067 17.6675 9.01152C18.1226 9.38128 18.4805 9.85664 18.7101 10.3962C18.9396 10.9359 19.0338 11.5234 18.9845 12.1077C18.9352 12.692 18.7438 13.2555 18.4271 13.749C18.1104 14.2425 17.6779 14.6511 17.1672 14.9394C17.2303 15.4273 17.1927 15.9229 17.0567 16.3957C16.9206 16.8685 16.6892 17.3084 16.3765 17.6882C16.0638 18.068 15.6766 18.3797 15.2388 18.604C14.8009 18.8283 14.3217 18.9605 13.8308 18.9923C13.3399 19.0242 12.8476 18.9551 12.3845 18.7892C11.9213 18.6234 11.4971 18.3644 11.1379 18.0281C10.7788 17.6919 10.4924 17.2856 10.2964 16.8344C10.1005 16.3832 9.99909 15.8965 9.99856 15.4046V3.70724Z" stroke="var(--stroke-0, #8E51FF)" stroke-width="1.5" stroke-linecap="round" stroke-linejoin="round"/>
<path id="Vector_3" d="M12.6979 10.9054C11.9425 10.6397 11.2828 10.1559 10.8024 9.51524C10.3219 8.8746 10.0422 8.10586 9.99855 7.30624C9.95495 8.10586 9.67523 8.8746 9.19474 9.51524C8.71426 10.1559 8.0546 10.6397 7.29917 10.9054" stroke="var(--stroke-0, #8E51FF)" stroke-width="1.5" stroke-linecap="round" stroke-linejoin="round"/>
<path id="Vector_4" d="M15.0365 5.05663C15.2543 4.67924 15.3775 4.25475 15.3956 3.81941" stroke="var(--stroke-0, #8E51FF)" stroke-width="1.5" stroke-linecap="round" stroke-linejoin="round"/>
<path id="Vector_5" d="M4.60242 3.81941C4.62021 4.25467 4.74309 4.67916 4.96054 5.05663" stroke="var(--stroke-0, #8E51FF)" stroke-width="1.5" stroke-linecap="round" stroke-linejoin="round"/>
<path id="Vector_6" d="M2.32971 9.01225C2.49432 8.87819 2.67047 8.75895 2.85609 8.65593" stroke="var(--stroke-0, #8E51FF)" stroke-width="1.5" stroke-linecap="round" stroke-linejoin="round"/>
<path id="Vector_7" d="M17.1409 8.65593C17.3265 8.75895 17.5027 8.87819 17.6673 9.01225" stroke="var(--stroke-0, #8E51FF)" stroke-width="1.5" stroke-linecap="round" stroke-linejoin="round"/>
<path id="Vector_8" d="M4.59972 15.4044C3.97961 15.4046 3.36994 15.2447 2.82982 14.9401" stroke="var(--stroke-0, #8E51FF)" stroke-width="1.5" stroke-linecap="round" stroke-linejoin="round"/>
<path id="Vector_9" d="M17.1672 14.9401C16.6271 15.2447 16.0174 15.4046 15.3973 15.4044" stroke="var(--stroke-0, #8E51FF)" stroke-width="1.5" stroke-linecap="round" stroke-linejoin="round"/>
</g>
</svg>
