<svg preserveAspectRatio="none" width="100%" height="100%" overflow="visible" style="display: block;" viewBox="0 0 18 18" fill="none" xmlns="http://www.w3.org/2000/svg">
<g id="chart">
<path id="Vector" d="M3.015 4.4775C2.0625 5.7375 1.5 7.305 1.5 9C1.5 13.14 4.86 16.5 9 16.5C13.14 16.5 16.5 13.14 16.5 9C16.5 4.86 13.14 1.5 9 1.5" stroke="var(--stroke-0, #A1A1AA)" stroke-linecap="round" stroke-linejoin="round"/>
<path id="Vector_2" d="M3.75 9C3.75 11.9025 6.0975 14.25 9 14.25C11.9025 14.25 14.25 11.9025 14.25 9C14.25 6.0975 11.9025 3.75 9 3.75" stroke="var(--stroke-0, #A1A1AA)" stroke-linecap="round" stroke-linejoin="round"/>
<path id="Vector_3" d="M9 12C10.6575 12 12 10.6575 12 9C12 7.3425 10.6575 6 9 6" stroke="var(--stroke-0, #A1A1AA)" stroke-linecap="round" stroke-linejoin="round"/>
<g id="Vector_4" opacity="0">
</g>
</g>
</svg>
