<svg preserveAspectRatio="none" width="100%" height="100%" overflow="visible" style="display: block;" viewBox="0 0 22 22" fill="none" xmlns="http://www.w3.org/2000/svg">
<g id="Chat">
<g id="Group 3">
<mask id="mask0_2413_26892" style="mask-type:luminance" maskUnits="userSpaceOnUse" x="0" y="0" width="22" height="22">
<path id="Clip 2" fill-rule="evenodd" clip-rule="evenodd" d="M0 0H21.493V21.4938H0V0Z" fill="var(--fill-0, white)"/>
</mask>
<g mask="url(#mask0_2413_26892)">
<path id="Fill 1" fill-rule="evenodd" clip-rule="evenodd" d="M5.1084 18.675C5.6884 18.675 6.2354 18.895 6.8144 19.128C10.3614 20.768 14.5564 20.022 17.2894 17.29C20.8954 13.682 20.8954 7.813 17.2894 4.207C15.5434 2.461 13.2214 1.5 10.7494 1.5C8.2764 1.5 5.9534 2.462 4.2084 4.208C1.4744 6.94 0.7304 11.135 2.3554 14.648C2.5894 15.227 2.8154 15.791 2.8154 16.377C2.8154 16.962 2.6144 17.551 2.4374 18.071C2.2914 18.499 2.0704 19.145 2.2124 19.287C2.3514 19.431 3.0014 19.204 3.4304 19.057C3.9454 18.881 4.5294 18.679 5.1084 18.675V18.675ZM10.7244 21.494C9.1964 21.494 7.6584 21.171 6.2194 20.505C5.7954 20.335 5.3984 20.175 5.1134 20.175C4.7854 20.177 4.3444 20.329 3.9184 20.476C3.0444 20.776 1.9564 21.15 1.1514 20.348C0.3494 19.545 0.7194 18.46 1.0174 17.587C1.1644 17.157 1.3154 16.713 1.3154 16.377C1.3154 16.101 1.1824 15.749 0.9784 15.242C-0.8946 11.197 -0.0285999 6.322 3.1484 3.147C5.1764 1.118 7.8754 0 10.7484 0C13.6214 0 16.3214 1.117 18.3494 3.146C22.5414 7.338 22.5414 14.158 18.3494 18.35C16.2944 20.406 13.5274 21.494 10.7244 21.494V21.494Z" fill="var(--fill-0, #8E51FF)"/>
</g>
</g>
<path id="Fill 4" fill-rule="evenodd" clip-rule="evenodd" d="M14.6963 12.1627C14.1443 12.1627 13.6923 11.7157 13.6923 11.1627C13.6923 10.6097 14.1353 10.1627 14.6873 10.1627H14.6963C15.2483 10.1627 15.6963 10.6097 15.6963 11.1627C15.6963 11.7157 15.2483 12.1627 14.6963 12.1627" fill="var(--fill-0, #8E51FF)"/>
<path id="Fill 6" fill-rule="evenodd" clip-rule="evenodd" d="M10.6875 12.1627C10.1355 12.1627 9.6835 11.7157 9.6835 11.1627C9.6835 10.6097 10.1255 10.1627 10.6785 10.1627H10.6875C11.2395 10.1627 11.6875 10.6097 11.6875 11.1627C11.6875 11.7157 11.2395 12.1627 10.6875 12.1627" fill="var(--fill-0, #8E51FF)"/>
<path id="Fill 8" fill-rule="evenodd" clip-rule="evenodd" d="M6.6783 12.1627C6.1263 12.1627 5.6743 11.7157 5.6743 11.1627C5.6743 10.6097 6.1173 10.1627 6.6693 10.1627H6.6783C7.2303 10.1627 7.6783 10.6097 7.6783 11.1627C7.6783 11.7157 7.2303 12.1627 6.6783 12.1627" fill="var(--fill-0, #8E51FF)"/>
</g>
</svg>
