<svg preserveAspectRatio="none" width="100%" height="100%" overflow="visible" style="display: block;" viewBox="0 0 20 20" fill="none" xmlns="http://www.w3.org/2000/svg">
<g id="tabler:calendar">
<path id="Vector" d="M13 2V5.33333M6.33333 2V5.33333M3 8.66667H16.3333M8.83333 12H9.66667V14.5M3 5.33333C3 4.89131 3.17559 4.46738 3.48816 4.15482C3.80072 3.84226 4.22464 3.66667 4.66667 3.66667H14.6667C15.1087 3.66667 15.5326 3.84226 15.8452 4.15482C16.1577 4.46738 16.3333 4.89131 16.3333 5.33333V15.3333C16.3333 15.7754 16.1577 16.1993 15.8452 16.5118C15.5326 16.8244 15.1087 17 14.6667 17H4.66667C4.22464 17 3.80072 16.8244 3.48816 16.5118C3.17559 16.1993 3 15.7754 3 15.3333V5.33333Z" stroke="var(--stroke-0, #667085)" stroke-linecap="round" stroke-linejoin="round"/>
</g>
</svg>
