<svg preserveAspectRatio="none" width="100%" height="100%" overflow="visible" style="display: block;" viewBox="0 0 15.1667 15.1666" fill="none" xmlns="http://www.w3.org/2000/svg">
<g id="Group">
<path id="Vector" d="M6.37207 10.5574L3.44697 7.63161L4.42177 6.65681L6.37207 8.60642L10.2713 4.70652L11.2468 5.68201L6.37207 10.5574Z" fill="var(--fill-0, #667085)"/>
<path id="Vector_2" fill-rule="evenodd" clip-rule="evenodd" d="M0 2.75757C0 2.02622 0.29053 1.32482 0.807675 0.807673C1.32482 0.290529 2.02622 0 2.75758 0H12.4091C13.1404 0 13.8418 0.290529 14.359 0.807673C14.8761 1.32482 15.1667 2.02622 15.1667 2.75757V12.4091C15.1667 13.1404 14.8761 13.8418 14.359 14.359C13.8418 14.8761 13.1404 15.1666 12.4091 15.1666H2.75758C2.02622 15.1666 1.32482 14.8761 0.807675 14.359C0.29053 13.8418 0 13.1404 0 12.4091V2.75757ZM2.75758 1.37878H12.4091C12.7748 1.37878 13.1255 1.52405 13.384 1.78262C13.6426 2.04119 13.7879 2.39189 13.7879 2.75757V12.4091C13.7879 12.7747 13.6426 13.1254 13.384 13.384C13.1255 13.6426 12.7748 13.7878 12.4091 13.7878H2.75758C2.3919 13.7878 2.0412 13.6426 1.78263 13.384C1.52405 13.1254 1.37879 12.7747 1.37879 12.4091V2.75757C1.37879 2.39189 1.52405 2.04119 1.78263 1.78262C2.0412 1.52405 2.3919 1.37878 2.75758 1.37878Z" fill="var(--fill-0, #667085)"/>
</g>
</svg>
