<svg preserveAspectRatio="none" width="100%" height="100%" overflow="visible" style="display: block;" viewBox="0 0 11.8527 14.3334" fill="none" xmlns="http://www.w3.org/2000/svg">
<g id="Group">
<path id="Vector" d="M3.89147 7.83336H7.96124M3.89147 10.5H5.92636M0.5 1.83334V12.5C0.5 12.8537 0.642926 13.1928 0.897336 13.4428C1.15175 13.6929 1.4968 13.8334 1.85659 13.8334H9.99613C10.3559 13.8334 10.701 13.6929 10.9554 13.4428C11.2098 13.1928 11.3527 12.8537 11.3527 12.5V4.72801C11.3527 4.55039 11.3166 4.37455 11.2464 4.21084C11.1763 4.04713 11.0736 3.89884 10.9444 3.77468L7.93275 0.880001C7.67932 0.636439 7.33895 0.500043 6.9845 0.5H1.85659C1.4968 0.5 1.15175 0.640476 0.897336 0.890525C0.642926 1.14057 0.5 1.47971 0.5 1.83334Z" stroke="var(--stroke-0, #667085)" stroke-linecap="round" stroke-linejoin="round"/>
<path id="Vector_2" d="M7.28295 0.5V3.16667C7.28295 3.5203 7.42587 3.85944 7.68028 4.10949C7.93469 4.35954 8.27975 4.50001 8.63954 4.50001H11.3527" stroke="var(--stroke-0, #667085)" stroke-linejoin="round"/>
</g>
</svg>
