<svg preserveAspectRatio="none" width="100%" height="100%" overflow="visible" style="display: block;" viewBox="0 0 3.9375 16.3125" fill="none" xmlns="http://www.w3.org/2000/svg">
<g id="Group">
<path id="Vector" d="M1.96875 2.8125C2.43474 2.8125 2.8125 2.43474 2.8125 1.96875C2.8125 1.50276 2.43474 1.125 1.96875 1.125C1.50276 1.125 1.125 1.50276 1.125 1.96875C1.125 2.43474 1.50276 2.8125 1.96875 2.8125Z" stroke="var(--stroke-0, #98A2B3)" stroke-width="2.25" stroke-linecap="round" stroke-linejoin="round"/>
<path id="Vector_2" d="M1.96875 9C2.43474 9 2.8125 8.62224 2.8125 8.15625C2.8125 7.69026 2.43474 7.3125 1.96875 7.3125C1.50276 7.3125 1.125 7.69026 1.125 8.15625C1.125 8.62224 1.50276 9 1.96875 9Z" stroke="var(--stroke-0, #98A2B3)" stroke-width="2.25" stroke-linecap="round" stroke-linejoin="round"/>
<path id="Vector_3" d="M1.96875 15.1875C2.43474 15.1875 2.8125 14.8097 2.8125 14.3438C2.8125 13.8778 2.43474 13.5 1.96875 13.5C1.50276 13.5 1.125 13.8778 1.125 14.3438C1.125 14.8097 1.50276 15.1875 1.96875 15.1875Z" stroke="var(--stroke-0, #98A2B3)" stroke-width="2.25" stroke-linecap="round" stroke-linejoin="round"/>
</g>
</svg>
