<svg preserveAspectRatio="none" width="100%" height="100%" overflow="visible" style="display: block;" viewBox="0 0 20 20" fill="none" xmlns="http://www.w3.org/2000/svg">
<g id="ant-design:message-outlined">
<path id="Vector" d="M9.14287 10C9.14287 10.2273 9.23317 10.4453 9.39392 10.6061C9.55466 10.7668 9.77268 10.8571 10 10.8571C10.2273 10.8571 10.4453 10.7668 10.6061 10.6061C10.7668 10.4453 10.8571 10.2273 10.8571 10C10.8571 9.77267 10.7668 9.55465 10.6061 9.39391C10.4453 9.23316 10.2273 9.14286 10 9.14286C9.77268 9.14286 9.55466 9.23316 9.39392 9.39391C9.23317 9.55465 9.14287 9.77267 9.14287 10ZM12.7143 10C12.7143 10.2273 12.8046 10.4453 12.9653 10.6061C13.126 10.7668 13.3441 10.8571 13.5714 10.8571C13.7987 10.8571 14.0167 10.7668 14.1775 10.6061C14.3382 10.4453 14.4285 10.2273 14.4285 10C14.4285 9.77267 14.3382 9.55465 14.1775 9.39391C14.0167 9.23316 13.7987 9.14286 13.5714 9.14286C13.3441 9.14286 13.126 9.23316 12.9653 9.39391C12.8046 9.55465 12.7143 9.77267 12.7143 10ZM5.57149 10C5.57149 10.2273 5.66179 10.4453 5.82253 10.6061C5.98328 10.7668 6.20129 10.8571 6.42862 10.8571C6.65594 10.8571 6.87396 10.7668 7.0347 10.6061C7.19544 10.4453 7.28575 10.2273 7.28575 10C7.28575 9.77267 7.19544 9.55465 7.0347 9.39391C6.87396 9.23316 6.65594 9.14286 6.42862 9.14286C6.20129 9.14286 5.98328 9.23316 5.82253 9.39391C5.66179 9.55465 5.57149 9.77267 5.57149 10ZM17.3785 6.9C16.9749 5.94107 16.3963 5.08036 15.6589 4.34107C14.9265 3.60607 14.0572 3.02182 13.1 2.62143C12.1178 2.20893 11.075 2 10 2H9.96429C8.88216 2.00536 7.83396 2.21964 6.84825 2.64107C5.89926 3.04557 5.03803 3.63085 4.31257 4.36429C3.58222 5.10179 3.00902 5.95893 2.61259 6.91429C2.20188 7.90357 1.99474 8.95536 2.0001 10.0375C2.00616 11.2776 2.29955 12.4995 2.85723 13.6071V16.3214C2.85723 16.5393 2.94378 16.7482 3.09782 16.9023C3.25187 17.0563 3.4608 17.1429 3.67865 17.1429H6.39469C7.50234 17.7006 8.72418 17.9939 9.96429 18H10.0018C11.0714 18 12.1089 17.7929 13.0857 17.3875C14.038 16.9919 14.9042 16.4144 15.6356 15.6875C16.3731 14.9571 16.9535 14.1036 17.3588 13.1518C17.7803 12.1661 17.9945 11.1179 17.9999 10.0357C18.0053 8.94821 17.7945 7.89286 17.3785 6.9ZM14.6803 14.7214C13.4285 15.9607 11.7678 16.6429 10 16.6429H9.96964C8.89287 16.6375 7.82324 16.3696 6.87861 15.8661L6.72861 15.7857H4.21436V13.2714L4.134 13.1214C3.63044 12.1768 3.36258 11.1071 3.35723 10.0304C3.35008 8.25 4.03043 6.57857 5.27863 5.31964C6.52504 4.06071 8.19109 3.36429 9.97143 3.35714H10.0018C10.8946 3.35714 11.7607 3.53036 12.5768 3.87321C13.3732 4.20714 14.0874 4.6875 14.7017 5.30179C15.3142 5.91429 15.7964 6.63036 16.1303 7.42679C16.4767 8.25179 16.6499 9.12679 16.6463 10.0304C16.6356 11.8089 15.9374 13.475 14.6803 14.7214Z" fill="var(--fill-0, #667085)"/>
</g>
</svg>
