<svg preserveAspectRatio="none" width="100%" height="100%" overflow="visible" style="display: block;" viewBox="0 0 19.4618 19.4618" fill="none" xmlns="http://www.w3.org/2000/svg">
<path id="Vector" d="M18.7118 10.54C18.5545 12.2422 17.9157 13.8644 16.8701 15.2168C15.8245 16.5692 14.4153 17.5958 12.8075 18.1766C11.1997 18.7573 9.4598 18.8681 7.79132 18.4961C6.12283 18.1241 4.59481 17.2846 3.38604 16.0758C2.17727 14.867 1.33776 13.339 0.965723 11.6705C0.593691 10.002 0.704532 8.2621 1.28528 6.65431C1.86602 5.04652 2.89265 3.63738 4.24503 2.59177C5.59741 1.54615 7.21961 0.907318 8.92182 0.750013C7.92523 2.09828 7.44567 3.75946 7.57035 5.43143C7.69503 7.10339 8.41568 8.67507 9.60122 9.86061C10.7868 11.0462 12.3584 11.7668 14.0304 11.8915C15.7024 12.0162 17.3635 11.5366 18.7118 10.54Z" stroke="var(--stroke-0, #667085)" stroke-width="1.5" stroke-linecap="round" stroke-linejoin="round"/>
</svg>
