<svg preserveAspectRatio="none" width="100%" height="100%" overflow="visible" style="display: block;" viewBox="0 0 20 20" fill="none" xmlns="http://www.w3.org/2000/svg">
<g id="ph:phone-call">
<path id="Vector" d="M11.0204 2.97497C11.0408 2.9039 11.076 2.83727 11.1239 2.77889C11.1719 2.72051 11.2317 2.67152 11.3 2.63473C11.3682 2.59794 11.4436 2.57406 11.5217 2.56445C11.5999 2.55485 11.6793 2.55971 11.7554 2.57876C12.8677 2.84963 13.8826 3.39234 14.6954 4.151C15.5083 4.90967 16.0898 5.85685 16.38 6.89501C16.4004 6.96606 16.4056 7.04018 16.3953 7.11312C16.385 7.18606 16.3595 7.25639 16.32 7.3201C16.2806 7.38381 16.2281 7.43964 16.1656 7.48441C16.103 7.52918 16.0316 7.562 15.9555 7.58101C15.9048 7.59344 15.8526 7.59979 15.8002 7.59991C15.668 7.59991 15.5395 7.55914 15.4347 7.48395C15.3298 7.40876 15.2545 7.30335 15.2205 7.18411C14.9838 6.33663 14.5092 5.56339 13.8457 4.9441C13.1822 4.32482 12.3537 3.88189 11.4457 3.66097C11.3695 3.64204 11.298 3.60927 11.2354 3.56453C11.1727 3.5198 11.1202 3.46397 11.0807 3.40026C11.0412 3.33654 11.0155 3.26619 11.0052 3.19321C10.9948 3.12024 11 3.04607 11.0204 2.97497ZM10.8457 5.901C11.8799 6.1586 12.5444 6.7788 12.8204 7.74411C12.8545 7.86336 12.9298 7.96877 13.0346 8.04396C13.1395 8.11915 13.268 8.15991 13.4002 8.15992C13.4526 8.15979 13.5048 8.15344 13.5555 8.14102C13.6316 8.12201 13.703 8.08918 13.7655 8.04441C13.8281 7.99965 13.8806 7.94381 13.92 7.88011C13.9594 7.8164 13.985 7.74607 13.9953 7.67313C14.0056 7.60019 14.0004 7.52607 13.98 7.45501C13.596 6.1138 12.5924 5.17719 11.1554 4.81879C11.0793 4.7998 10.9999 4.795 10.9218 4.80466C10.8436 4.81431 10.7683 4.83823 10.7001 4.87506C10.6319 4.91188 10.5721 4.96089 10.5242 5.01927C10.4763 5.07766 10.4411 5.14428 10.4208 5.21534C10.4004 5.2864 10.3953 5.3605 10.4056 5.43341C10.416 5.50633 10.4416 5.57663 10.4811 5.6403C10.5205 5.70397 10.573 5.75976 10.6356 5.80449C10.6981 5.84922 10.7695 5.88201 10.8457 5.901ZM16.9913 12.5756C16.8575 13.5241 16.3584 14.3948 15.5872 15.0249C14.8159 15.6551 13.8252 16.0017 12.8002 16C6.84509 16 2.00001 11.478 2.00001 5.9199C1.99817 4.96319 2.36953 4.03857 3.04472 3.31874C3.71992 2.5989 4.65278 2.13307 5.66907 2.00826C5.92606 1.97897 6.18632 2.02804 6.41097 2.14815C6.63563 2.26825 6.81264 2.45295 6.91559 2.67466L8.49962 5.9752V5.9836C8.57843 6.15332 8.61099 6.33861 8.59436 6.52294C8.57774 6.70726 8.51247 6.88487 8.40437 7.03991C8.39087 7.05881 8.37662 7.07631 8.36162 7.09381L6.80009 8.82142C7.36185 9.88683 8.55587 10.9914 9.71239 11.5172L11.5379 10.0674C11.5558 10.0534 11.5746 10.0403 11.5942 10.0282C11.7601 9.92492 11.9511 9.86185 12.1498 9.84474C12.3484 9.82763 12.5485 9.85701 12.7319 9.93023L12.7417 9.93444L16.275 11.4121C16.513 11.5079 16.7114 11.673 16.8405 11.8827C16.9696 12.0924 17.0225 12.3355 16.9913 12.5756ZM15.8002 12.4356H15.792L12.2669 10.962L10.4407 12.4118C10.4229 12.4258 10.4044 12.4389 10.3852 12.451C10.2125 12.5585 10.0128 12.6224 9.8058 12.6363C9.59875 12.6503 9.39136 12.614 9.20388 12.5308C7.79911 11.8973 6.39883 10.6001 5.71932 9.30303C5.62934 9.12933 5.58896 8.93688 5.6021 8.74433C5.61524 8.55178 5.68146 8.36566 5.79432 8.20402C5.80704 8.18504 5.82134 8.16702 5.83707 8.15012L7.4001 6.4204L5.82507 3.13037C5.82478 3.12758 5.82478 3.12476 5.82507 3.12197C5.09775 3.21052 4.42996 3.54349 3.94675 4.05852C3.46354 4.57355 3.19806 5.23532 3.20003 5.9199C3.20281 8.29546 4.21514 10.573 6.01492 12.2528C7.8147 13.9325 10.2549 14.8774 12.8002 14.88C13.5332 14.8823 14.2421 14.6354 14.7942 14.1854C15.3464 13.7354 15.704 13.1138 15.8002 12.4356Z" fill="var(--fill-0, #667085)"/>
</g>
</svg>
