<svg preserveAspectRatio="none" width="100%" height="100%" overflow="visible" style="display: block;" viewBox="0 0 44 44" fill="none" xmlns="http://www.w3.org/2000/svg">
<g id="Group 1000007271">
<circle id="Ellipse 1206" cx="22" cy="22" r="22" fill="var(--fill-0, white)"/>
<g id="clarity:notification-line" clip-path="url(#clip0_5016_55833)">
<path id="Vector" d="M31.6752 28.5533C31.0323 27.9802 30.4695 27.3232 30.0018 26.6C29.4913 25.6017 29.1853 24.5115 29.1018 23.3933V20.1C29.1062 18.3437 28.4692 16.6463 27.3103 15.3266C26.1515 14.007 24.5506 13.1559 22.8085 12.9333V12.0733C22.8085 11.8373 22.7147 11.6109 22.5478 11.444C22.3809 11.2771 22.1545 11.1833 21.9185 11.1833C21.6824 11.1833 21.4561 11.2771 21.2892 11.444C21.1223 11.6109 21.0285 11.8373 21.0285 12.0733V12.9467C19.302 13.1853 17.7205 14.0415 16.5768 15.3567C15.4332 16.672 14.805 18.3571 14.8085 20.1V23.3933C14.725 24.5115 14.419 25.6017 13.9085 26.6C13.4491 27.3216 12.8953 27.9785 12.2618 28.5533C12.1907 28.6158 12.1337 28.6927 12.0946 28.7789C12.0556 28.8651 12.0353 28.9587 12.0352 29.0533V29.96C12.0352 30.1368 12.1054 30.3064 12.2304 30.4314C12.3554 30.5564 12.525 30.6267 12.7018 30.6267H31.2352C31.412 30.6267 31.5815 30.5564 31.7066 30.4314C31.8316 30.3064 31.9018 30.1368 31.9018 29.96V29.0533C31.9017 28.9587 31.8814 28.8651 31.8423 28.7789C31.8033 28.6927 31.7463 28.6158 31.6752 28.5533ZM13.4218 29.2933C14.0421 28.6941 14.5882 28.0227 15.0485 27.2933C15.6916 26.0876 16.0668 24.7573 16.1485 23.3933V20.1C16.1221 19.3187 16.2531 18.54 16.5339 17.8104C16.8146 17.0808 17.2393 16.4152 17.7827 15.8531C18.326 15.2911 18.9769 14.8441 19.6966 14.5388C20.4163 14.2336 21.1901 14.0763 21.9718 14.0763C22.7536 14.0763 23.5273 14.2336 24.247 14.5388C24.9667 14.8441 25.6176 15.2911 26.161 15.8531C26.7043 16.4152 27.129 17.0808 27.4098 17.8104C27.6905 18.54 27.8216 19.3187 27.7952 20.1V23.3933C27.8769 24.7573 28.2521 26.0876 28.8952 27.2933C29.3554 28.0227 29.9016 28.6941 30.5218 29.2933H13.4218Z" fill="var(--fill-0, #667085)"/>
<path id="Vector_2" d="M22.0015 32.8533C22.4215 32.8437 22.8245 32.6858 23.1392 32.4076C23.454 32.1295 23.6603 31.7489 23.7215 31.3333H20.2148C20.2778 31.7602 20.4937 32.1497 20.8224 32.4293C21.151 32.7089 21.5701 32.8596 22.0015 32.8533Z" fill="var(--fill-0, #667085)"/>
<g id="Vector_3">
</g>
</g>
</g>
<defs>
<clipPath id="clip0_5016_55833">
<rect width="24" height="24" fill="white" transform="translate(10 10)"/>
</clipPath>
</defs>
</svg>
