<svg preserveAspectRatio="none" width="100%" height="100%" overflow="visible" style="display: block;" viewBox="0 0 21 10" fill="none" xmlns="http://www.w3.org/2000/svg">
<g id="Discover">
<path id="Stripe" d="M7.35 9.03335L20.0167 5.20001V7.48335C20.0167 8.33939 19.3227 9.03335 18.4667 9.03335H7.35Z" fill="var(--fill-0, #FD6020)"/>
<g id="Group 63">
<path id="DISC-VER" d="M7.45605 0.0734141C7.69996 0.0734141 7.97942 0.10983 8.18848 0.253102V0.968922C8.01426 0.754068 7.73476 0.6115 7.45605 0.6115C6.89875 0.647537 6.44563 1.1489 6.48047 1.72185V1.79314C6.48047 2.3662 6.93376 2.79603 7.49121 2.79607C7.76996 2.79607 8.01426 2.65258 8.18848 2.43767V3.15447C7.94465 3.26189 7.70051 3.33313 7.42188 3.33318C6.5508 3.33318 5.85352 2.58116 5.85352 1.68572C5.85352 0.754597 6.55034 0.00204683 7.45605 0.0734141ZM12.9268 2.22283L13.7627 0.0734141H14.3906L13.1006 3.33318H12.7871L11.498 0.0734141H12.125L12.9268 2.22283ZM4.66895 0.00212502C4.98253 0.00212502 5.29614 0.145616 5.54004 0.360523L5.22656 0.790211C5.08719 0.646939 4.9125 0.539234 4.73828 0.539234C4.52943 0.503739 4.35515 0.68289 4.32031 0.897633C4.32031 1.07672 4.42501 1.14889 4.77344 1.29216C5.47016 1.57866 5.64482 1.79312 5.67969 2.22283V2.33025C5.64484 2.90334 5.19128 3.33286 4.63379 3.29705C4.2158 3.29692 3.79787 3.08251 3.58887 2.68865L3.97168 2.29509C4.07627 2.54569 4.32096 2.72478 4.59961 2.72478H4.63379C4.8428 2.72478 5.05264 2.50962 5.05273 2.25896C5.05273 2.11571 4.98244 2.00833 4.87793 1.9367C4.73856 1.86506 4.59933 1.79283 4.45996 1.75701C3.90253 1.57792 3.72852 1.32743 3.72852 0.897633V0.8615C3.76356 0.360263 4.1813 -0.0336508 4.66895 0.00212502ZM1.04492 0.0743906C1.88099 0.110213 2.54336 0.826309 2.50879 1.68572C2.50864 2.15117 2.29948 2.58222 1.95117 2.90447C1.63769 3.15494 1.25416 3.29767 0.871094 3.26189H0V0.0743906H1.04492ZM3.34473 3.26189H2.75293V0.0734141H3.34473V3.26189ZM16.3418 0.6115H15.2617V1.32732H16.3066V1.86443H15.2617V2.72478H16.3418V3.26189H14.6689V0.0734141H16.3418V0.6115ZM17.5957 0.0734141C18.2924 0.073419 18.6756 0.396464 18.6758 1.00505C18.7104 1.47053 18.3965 1.8641 17.9785 1.93572L18.9199 3.26091H18.1885L17.3867 1.97185H17.3174V3.26091H16.7246V0.0734141H17.5957ZM0.766602 0.6115H0.592773V2.72478H0.766602C1.04522 2.76055 1.35932 2.65275 1.56836 2.4738C1.77701 2.25909 1.88169 1.97245 1.88184 1.65056C1.88184 1.36424 1.77709 1.07733 1.56836 0.862477C1.35932 0.683401 1.04533 0.575707 0.766602 0.6115ZM17.3174 1.54216H17.4912C17.8744 1.54215 18.0488 1.36256 18.0488 1.04021C18.0485 0.754136 17.8741 0.575383 17.4912 0.575367H17.3174V1.54216Z" fill="var(--fill-0, black)"/>
<path id="O" fill-rule="evenodd" clip-rule="evenodd" d="M9.96515 0C9.09407 0 8.36237 0.716359 8.36237 1.64763C8.36237 2.54308 9.05923 3.29525 9.96515 3.33107C10.8711 3.36689 11.5679 2.61471 11.6028 1.68344C11.5679 0.752177 10.8711 0 9.96515 0V0Z" fill="var(--fill-0, #FD6020)"/>
</g>
</g>
</svg>
