<svg preserveAspectRatio="none" width="100%" height="100%" overflow="visible" style="display: block;" viewBox="0 0 51 22" fill="none" xmlns="http://www.w3.org/2000/svg">
<path id="Stripe" d="M35.0059 4.46582C37.4849 4.46598 39.8227 6.69873 39.8369 10.7969C39.8369 15.2767 37.5271 17.3115 34.9912 17.3115C33.7451 17.3115 32.9943 16.7893 32.4844 16.4219L32.4697 20.4209L28.9277 21.1699V4.69141H32.0449L32.2285 5.56836C32.7244 5.11613 33.6175 4.46582 35.0059 4.46582ZM4.78809 4.46582C5.96392 4.46582 7.12592 4.64985 8.30176 5.11621V8.43652C7.22509 7.85713 5.86474 7.53223 4.78809 7.53223C4.03737 7.53227 3.58398 7.7448 3.58398 8.2959C3.58479 9.87823 8.98193 9.12977 8.99609 13.3408C8.99603 15.8703 6.96999 17.3261 4.02344 17.3262C2.80523 17.3262 1.47361 17.0857 0.15625 16.5205V13.1572C1.34618 13.8072 2.84775 14.2871 4.02344 14.2871C4.81658 14.2871 5.38264 14.0756 5.38281 13.4258C5.38281 11.7441 0 12.3653 0 8.46484C0.000146346 5.9637 1.91247 4.46589 4.78809 4.46582ZM13.1465 4.70605H15.8379V7.71582H13.1465V12.7334C13.1468 14.8238 15.3837 14.1751 15.8379 13.9912V16.8594C15.3704 17.1137 14.5207 17.3261 13.3594 17.3262C11.2628 17.3262 9.68964 15.7857 9.68945 13.6943L9.7041 2.37402L13.1611 1.63965L13.1465 4.70605ZM45.8857 4.46582C49.2432 4.46582 51 7.32067 51 10.9385C51 11.2778 50.9717 12.0126 50.9717 12.1963H44.0439C44.1999 13.8634 45.4181 14.3436 46.792 14.3438C48.1945 14.3438 49.3003 14.0469 50.2637 13.5664V16.3936C49.3003 16.9306 48.0247 17.3115 46.3389 17.3115C42.8824 17.3114 40.4737 15.1637 40.4736 10.9102C40.4736 7.32062 42.5141 4.46583 45.8857 4.46582ZM20.2441 5.75195C21.0797 4.22611 22.7366 4.53644 23.1904 4.70605V7.95605C22.7507 7.80063 21.3345 7.60365 20.499 8.69141V17.0713H16.958V4.70605H20.0176L20.2441 5.75195ZM27.6104 17.0713H24.0547V4.70605H27.6104V17.0713ZM34.1553 7.60352C33.3479 7.60358 32.838 7.88612 32.4697 8.2959L32.4834 13.5381C32.8234 13.9055 33.3196 14.2031 34.1553 14.2031C35.4586 14.2031 36.3369 12.7892 36.3369 10.8955C36.3368 9.04435 35.4444 7.60352 34.1553 7.60352ZM45.8711 7.33496C44.9787 7.33517 44.002 7.99904 44.002 9.5957H47.6562C47.6562 7.99878 46.7353 7.33496 45.8711 7.33496ZM27.6104 2.86914L24.0547 3.63184V0.749023L27.6104 0V2.86914Z" fill="var(--fill-0, #6461FC)"/>
</svg>
