<svg preserveAspectRatio="none" width="100%" height="100%" overflow="visible" style="display: block;" viewBox="0 0 26 11" fill="none" xmlns="http://www.w3.org/2000/svg">
<path id="Stripe" d="M17.5029 2.23242C18.7425 2.23251 19.9109 3.34938 19.918 5.39844C19.918 7.63814 18.7639 8.65604 17.4961 8.65625C16.873 8.65625 16.4972 8.39465 16.2422 8.21094L16.2344 10.21L14.4639 10.585V2.3457H16.0225L16.1143 2.78418C16.3622 2.55807 16.8088 2.23242 17.5029 2.23242ZM2.39453 2.23242C2.98216 2.23246 3.56276 2.32463 4.15039 2.55762V4.21875C3.61221 3.92918 2.93274 3.76668 2.39453 3.7666C2.01925 3.7666 1.79216 3.87212 1.79199 4.14746C1.79199 4.9388 4.4906 4.56472 4.49805 6.66992C4.49805 7.93472 3.48502 8.66306 2.01172 8.66309C1.40256 8.66309 0.736864 8.54239 0.078125 8.25977V6.57812C0.673123 6.90315 1.42381 7.14355 2.01172 7.14355C2.40829 7.14354 2.69132 7.03779 2.69141 6.71289C2.69141 5.87203 0 6.18265 0 4.23242C7.15711e-05 2.98182 0.956661 2.23242 2.39453 2.23242ZM6.57324 2.35254H7.91895V3.8584H6.57324V6.36621C6.57324 7.41196 7.69224 7.08698 7.91895 6.99512V8.42969C7.68521 8.55685 7.26037 8.66306 6.67969 8.66309C5.63135 8.66309 4.84473 7.89245 4.84473 6.84668L4.85156 1.1875L6.58008 0.819336L6.57324 2.35254ZM22.9424 2.23242C24.621 2.23242 25.4999 3.66002 25.5 5.46875C25.5 5.63813 25.4854 6.00524 25.4854 6.09766H22.0225C22.1004 6.93145 22.7094 7.17188 23.3965 7.17188C24.0976 7.17184 24.6502 7.02342 25.1318 6.7832V8.19629C24.6502 8.46476 24.0126 8.65619 23.1699 8.65625C21.4416 8.65625 20.2373 7.58189 20.2373 5.45508C20.2373 3.66048 21.2568 2.2327 22.9424 2.23242ZM10.1221 2.87598C10.54 2.11284 11.369 2.26775 11.5957 2.35254V3.97852C11.3761 3.9008 10.6679 3.80177 10.25 4.3457V8.53613H8.47852V2.35254H10.0088L10.1221 2.87598ZM13.8057 8.53613H12.0273V2.35254H13.8057V8.53613ZM17.0781 3.80176C16.6744 3.80176 16.4185 3.94255 16.2344 4.14746L16.2422 6.76953C16.4122 6.95312 16.6604 7.10156 17.0781 7.10156C17.7295 7.1013 18.1688 6.39475 18.1689 5.44824C18.1689 4.52276 17.7225 3.80202 17.0781 3.80176ZM22.9355 3.66699C22.4894 3.6671 22.001 3.99952 22.001 4.79785H23.8281C23.8281 3.99939 23.3676 3.66699 22.9355 3.66699ZM13.8057 1.43457L12.0273 1.81641V0.374023L13.8057 0V1.43457Z" fill="var(--fill-0, #6461FC)"/>
</svg>
