<svg preserveAspectRatio="none" width="100%" height="100%" overflow="visible" style="display: block;" viewBox="0 0 16 16" fill="none" xmlns="http://www.w3.org/2000/svg">
<g id="chart">
<path id="Vector" d="M2.68 3.98C1.83333 5.1 1.33333 6.49333 1.33333 8C1.33333 11.68 4.32 14.6667 8 14.6667C11.68 14.6667 14.6667 11.68 14.6667 8C14.6667 4.32 11.68 1.33333 8 1.33333" stroke="var(--stroke-0, #8E51FF)" stroke-linecap="round" stroke-linejoin="round"/>
<path id="Vector_2" d="M3.33333 8C3.33333 10.58 5.42 12.6667 8 12.6667C10.58 12.6667 12.6667 10.58 12.6667 8C12.6667 5.42 10.58 3.33333 8 3.33333" stroke="var(--stroke-0, #8E51FF)" stroke-linecap="round" stroke-linejoin="round"/>
<path id="Vector_3" d="M8 10.6667C9.47333 10.6667 10.6667 9.47333 10.6667 8C10.6667 6.52667 9.47333 5.33333 8 5.33333" stroke="var(--stroke-0, #8E51FF)" stroke-linecap="round" stroke-linejoin="round"/>
<g id="Vector_4" opacity="0">
</g>
</g>
</svg>
