<svg preserveAspectRatio="none" width="100%" height="100%" overflow="visible" style="display: block;" viewBox="0 0 16 16" fill="none" xmlns="http://www.w3.org/2000/svg">
<g id="cup">
<path id="Vector" d="M8.09994 11V12.4" stroke="var(--stroke-0, #8E51FF)" stroke-linecap="round" stroke-linejoin="round"/>
<path id="Vector_2" d="M4.7666 14.6667H11.4333V14C11.4333 13.2667 10.8333 12.6667 10.0999 12.6667H6.09993C5.3666 12.6667 4.7666 13.2667 4.7666 14V14.6667V14.6667Z" stroke="var(--stroke-0, #8E51FF)" stroke-miterlimit="10"/>
<path id="Vector_3" d="M4.09994 14.6667H12.0999" stroke="var(--stroke-0, #8E51FF)" stroke-linecap="round" stroke-linejoin="round"/>
<path id="Vector_4" d="M8 10.6667C5.42 10.6667 3.33333 8.58 3.33333 6V4C3.33333 2.52667 4.52667 1.33333 6 1.33333H10C11.4733 1.33333 12.6667 2.52667 12.6667 4V6C12.6667 8.58 10.58 10.6667 8 10.6667Z" stroke="var(--stroke-0, #8E51FF)" stroke-linecap="round" stroke-linejoin="round"/>
<path id="Vector_5" d="M3.64669 7.76641C3.14669 7.60641 2.70669 7.31307 2.36003 6.96641C1.76003 6.29974 1.36003 5.49974 1.36003 4.56641C1.36003 3.63307 2.09336 2.89974 3.02669 2.89974H3.46003C3.32669 3.20641 3.26003 3.54641 3.26003 3.89974V5.89974C3.26003 6.56641 3.40003 7.19307 3.64669 7.76641Z" stroke="var(--stroke-0, #8E51FF)" stroke-linecap="round" stroke-linejoin="round"/>
<path id="Vector_6" d="M12.3534 7.76641C12.8534 7.60641 13.2934 7.31307 13.64 6.96641C14.24 6.29974 14.64 5.49974 14.64 4.56641C14.64 3.63307 13.9067 2.89974 12.9734 2.89974H12.54C12.6734 3.20641 12.74 3.54641 12.74 3.89974V5.89974C12.74 6.56641 12.6 7.19307 12.3534 7.76641Z" stroke="var(--stroke-0, #8E51FF)" stroke-linecap="round" stroke-linejoin="round"/>
<g id="Vector_7" opacity="0">
</g>
</g>
</svg>
