<svg preserveAspectRatio="none" width="100%" height="100%" overflow="visible" style="display: block;" viewBox="0 0 16 16" fill="none" xmlns="http://www.w3.org/2000/svg">
<g id="bubble">
<path id="Vector" d="M10.3933 8.17333C12.2821 8.17333 13.8133 6.64215 13.8133 4.75334C13.8133 2.86452 12.2821 1.33333 10.3933 1.33333C8.5045 1.33333 6.97331 2.86452 6.97331 4.75334C6.97331 6.64215 8.5045 8.17333 10.3933 8.17333Z" stroke="var(--stroke-0, #8E51FF)" stroke-miterlimit="10"/>
<path id="Vector_2" d="M4.24001 12.9602C5.37404 12.9602 6.29336 12.0409 6.29336 10.9069C6.29336 9.77283 5.37404 8.85352 4.24001 8.85352C3.10599 8.85352 2.18669 9.77283 2.18669 10.9069C2.18669 12.0409 3.10599 12.9602 4.24001 12.9602Z" stroke="var(--stroke-0, #8E51FF)" stroke-miterlimit="10"/>
<path id="Vector_3" d="M11.08 14.6666C12.0226 14.6666 12.7867 13.9025 12.7867 12.9599C12.7867 12.0174 12.0226 11.2533 11.08 11.2533C10.1375 11.2533 9.37337 12.0174 9.37337 12.9599C9.37337 13.9025 10.1375 14.6666 11.08 14.6666Z" stroke="var(--stroke-0, #8E51FF)" stroke-miterlimit="10"/>
<g id="Vector_4" opacity="0">
</g>
<g id="Vector_5" opacity="0">
</g>
</g>
</svg>
